<svg xmlns="http://www.w3.org/2000/svg" width="153" height="153" viewBox="0 0 153 153">
    <g fill="none" fill-rule="evenodd" transform="translate(2 2)">
        <rect width="148.993" height="148.993" stroke="#FFF" stroke-width="4" rx="74.496"/>
        <g fill="#FFF" fill-rule="nonzero">
            <path d="M72.54 75.981a3.026 3.026 0 0 1 1.41-4.025 2.991 2.991 0 0 1 4 1.418c8.422 17.704 24.894 29.902 25.06 30.023a3.033 3.033 0 0 1 .663 4.216 2.99 2.99 0 0 1-4.19.67c-.725-.529-17.85-13.183-26.943-32.302z"/>
            <path d="M37.256 96.565a3.002 3.002 0 0 1-4.006-1.416c-5.389-11.29-6.073-24.009-1.922-35.811 4.15-11.806 12.635-21.283 23.891-26.684A46.908 46.908 0 0 1 75.4 28.06c17.887 0 34.432 10.451 42.152 26.626a3.016 3.016 0 0 1-1.414 4.016 2.997 2.997 0 0 1-4.004-1.418c-6.727-14.095-21.146-23.202-36.735-23.202a40.875 40.875 0 0 0-17.586 4.006c-9.81 4.706-17.203 12.964-20.82 23.253-3.616 10.286-3.022 21.37 1.676 31.208a3.014 3.014 0 0 1-1.412 4.017z"/>
            <path d="M62.39 117.721a2.994 2.994 0 0 1-4.237-.3c-7.24-8.368-13.076-17.155-17.349-26.114-4.4-9.231-4.956-19.629-1.57-29.278 3.392-9.651 10.32-17.397 19.51-21.814A38.223 38.223 0 0 1 75.22 36.46c14.604 0 28.112 8.544 34.413 21.764 2.473 5.185 6.852 9.998 10.09 13.122a3.023 3.023 0 0 1 .084 4.263 2.995 2.995 0 0 1-4.246.085c-3.596-3.472-8.483-8.867-11.345-14.865-5.31-11.14-16.691-18.34-28.996-18.34-4.78 0-9.58 1.095-13.882 3.166-7.744 3.722-13.582 10.249-16.44 18.38-2.854 8.13-2.383 16.89 1.324 24.67 4.04 8.47 9.58 16.803 16.467 24.764a3.025 3.025 0 0 1-.299 4.253z"/>
            <path d="M74.26 120.86a2.993 2.993 0 0 1-2.091-.85c-7.119-6.92-17.027-18.145-23.808-32.33-3.412-7.135-3.845-15.177-1.217-22.644 2.626-7.463 7.998-13.456 15.126-16.87a29.763 29.763 0 0 1 12.777-2.907c11.324 0 21.8 6.61 26.688 16.837 4.759 9.951 14.648 18.188 16.583 19.738a3.01 3.01 0 0 1 .468 4.228 2.998 2.998 0 0 1-4.22.469c-2.97-2.38-13.06-10.984-18.248-21.838-3.896-8.15-12.246-13.418-21.27-13.418-3.502 0-7.023.802-10.186 2.316-5.68 2.721-9.96 7.496-12.054 13.444-2.093 5.95-1.749 12.36.971 18.047 6.397 13.383 15.806 24.034 22.574 30.611a3.01 3.01 0 0 1-2.093 5.166z"/>
            <path d="M85.575 119.66a2.976 2.976 0 0 1-1.953-.728c-6.802-5.859-19.394-18.163-27.308-34.742a20.963 20.963 0 0 1-.864-16.086c1.864-5.298 5.675-9.555 10.73-11.98a21.08 21.08 0 0 1 9.064-2.065c8.03 0 15.461 4.694 18.933 11.957 6.244 13.082 19.358 23.073 19.461 23.151.753.553 1.453 1.14 2.081 1.744a3.013 3.013 0 0 1 .093 4.253 2.994 2.994 0 0 1-4.241.09 15.34 15.34 0 0 0-1.511-1.259c-.586-.442-14.425-10.988-21.296-25.38-2.478-5.187-7.786-8.54-13.52-8.54-2.225 0-4.463.51-6.472 1.474a14.919 14.919 0 0 0-7.663 8.556 14.965 14.965 0 0 0 .617 11.487c7.441 15.587 19.363 27.228 25.807 32.779a3.015 3.015 0 0 1 .32 4.242 2.99 2.99 0 0 1-2.278 1.046z"/>
            <path d="M94.558 116.06c-.64 0-1.285-.207-1.832-.631-4.534-3.527-20.012-16.485-28.857-35.078a12.474 12.474 0 0 1-.51-9.546c1.102-3.152 3.356-5.68 6.345-7.116a12.375 12.375 0 0 1 5.366-1.23c4.75 0 9.148 2.786 11.204 7.1 7.074 14.873 21.17 25.74 22.111 26.455a12.435 12.435 0 0 1 2.936 3.034 3.03 3.03 0 0 1-.782 4.195 2.986 2.986 0 0 1-4.167-.784 6.435 6.435 0 0 0-1.531-1.575l-.047-.035c-1.644-1.242-16.277-12.588-23.93-28.683a6.457 6.457 0 0 0-5.794-3.67c-.956 0-1.912.218-2.773.636a6.387 6.387 0 0 0-3.28 3.679 6.453 6.453 0 0 0 .262 4.934c8.275 17.395 22.849 29.587 27.118 32.91a3.032 3.032 0 0 1 .537 4.233 2.987 2.987 0 0 1-2.376 1.171z"/>
        </g>
    </g>
</svg>
